HIERARCHY
ROOT mixamorig:Hips
{
	OFFSET -0.000008 104.274872 1.554316
	CHANNELS 6 Xposition Yposition Zposition Xrotation Yrotation Zrotation
	JOINT mixamorig:Spine
	{
		OFFSET -0.000005 10.181595 0.131519
		CHANNELS 6 Xposition Yposition Zposition Xrotation Yrotation Zrotation
		JOINT mixamorig:Spine1
		{
			OFFSET -0.000000 9.893959 -1.470707
			CHANNELS 6 Xposition Yposition Zposition Xrotation Yrotation Zrotation
			JOINT mixamorig:Spine2
			{
				OFFSET -0.000000 9.220757 -1.370641
				CHANNELS 6 Xposition Yposition Zposition Xrotation Yrotation Zrotation
				JOINT mixamorig:Neck
				{
					OFFSET 0.000001 16.740417 -2.049036
					CHANNELS 6 Xposition Yposition Zposition Xrotation Yrotation Zrotation
					JOINT mixamorig:Head
					{
						OFFSET 0.000000 9.617874 1.685006
						CHANNELS 6 Xposition Yposition Zposition Xrotation Yrotation Zrotation
						JOINT mixamorig:HeadTop_End
						{
							OFFSET 0.000002 22.037354 7.501101
							CHANNELS 6 Xposition Yposition Zposition Xrotation Yrotation Zrotation
							End Site
							{
								OFFSET 0.000168 2310.654297 -282.823242
							}
						}
					}
				}
				JOINT mixamorig:RightShoulder
				{
					OFFSET -4.569970 11.014908 -2.160885
					CHANNELS 6 Xposition Yposition Zposition Xrotation Yrotation Zrotation
					JOINT mixamorig:RightArm
					{
						OFFSET -10.592851 -0.524811 -2.232101
						CHANNELS 6 Xposition Yposition Zposition Xrotation Yrotation Zrotation
						JOINT mixamorig:RightForeArm
						{
							OFFSET -27.841511 0.000031 -0.000004
							CHANNELS 6 Xposition Yposition Zposition Xrotation Yrotation Zrotation
							JOINT mixamorig:RightHand
							{
								OFFSET -28.328831 -0.000015 0.000015
								CHANNELS 6 Xposition Yposition Zposition Xrotation Yrotation Zrotation
								JOINT mixamorig:RightHandThumb1
								{
									OFFSET -2.464806 -1.573990 2.681852
									CHANNELS 6 Xposition Yposition Zposition Xrotation Yrotation Zrotation
									JOINT mixamorig:RightHandThumb2
									{
										OFFSET -3.215179 -1.872803 1.924282
										CHANNELS 6 Xposition Yposition Zposition Xrotation Yrotation Zrotation
										JOINT mixamorig:RightHandThumb3
										{
											OFFSET -2.654831 -1.527969 1.512609
											CHANNELS 6 Xposition Yposition Zposition Xrotation Yrotation Zrotation
											JOINT mixamorig:RightHandThumb4
											{
												OFFSET -2.018814 -1.152008 1.108052
												CHANNELS 6 Xposition Yposition Zposition Xrotation Yrotation Zrotation
												End Site
												{
													OFFSET -188.809540 -114.533607 132.431396
												}
											}
										}
									}
								}
								JOINT mixamorig:RightHandIndex1
								{
									OFFSET -9.108284 -0.517868 2.259835
									CHANNELS 6 Xposition Yposition Zposition Xrotation Yrotation Zrotation
									JOINT mixamorig:RightHandIndex2
									{
										OFFSET -3.699989 0.000000 0.001215
										CHANNELS 6 Xposition Yposition Zposition Xrotation Yrotation Zrotation
										JOINT mixamorig:RightHandIndex3
										{
											OFFSET -2.850006 0.000031 -0.000522
											CHANNELS 6 Xposition Yposition Zposition Xrotation Yrotation Zrotation
											JOINT mixamorig:RightHandIndex4
											{
												OFFSET -2.772186 -0.000015 -0.000020
												CHANNELS 6 Xposition Yposition Zposition Xrotation Yrotation Zrotation
												End Site
												{
													OFFSET -277.218445 0.000000 -0.050231
												}
											}
										}
									}
								}
								JOINT mixamorig:RightHandMiddle1
								{
									OFFSET -9.532516 -0.000031 -0.000023
									CHANNELS 6 Xposition Yposition Zposition Xrotation Yrotation Zrotation
									JOINT mixamorig:RightHandMiddle2
									{
										OFFSET -3.700005 -0.000015 0.003713
										CHANNELS 6 Xposition Yposition Zposition Xrotation Yrotation Zrotation
										JOINT mixamorig:RightHandMiddle3
										{
											OFFSET -2.949974 0.000015 -0.002054
											CHANNELS 6 Xposition Yposition Zposition Xrotation Yrotation Zrotation
											JOINT mixamorig:RightHandMiddle4
											{
												OFFSET -2.946640 0.000000 -0.000156
												CHANNELS 6 Xposition Yposition Zposition Xrotation Yrotation Zrotation
												End Site
												{
													OFFSET -294.664337 0.000000 -0.113670
												}
											}
										}
									}
								}
								JOINT mixamorig:RightHandRing1
								{
									OFFSET -9.103600 -0.043076 -1.865134
									CHANNELS 6 Xposition Yposition Zposition Xrotation Yrotation Zrotation
									JOINT mixamorig:RightHandRing2
									{
										OFFSET -3.379288 0.000000 -0.001055
										CHANNELS 6 Xposition Yposition Zposition Xrotation Yrotation Zrotation
										JOINT mixamorig:RightHandRing3
										{
											OFFSET -2.889687 -0.000015 0.000379
											CHANNELS 6 Xposition Yposition Zposition Xrotation Yrotation Zrotation
											JOINT mixamorig:RightHandRing4
											{
												OFFSET -2.638809 -0.000015 0.000941
												CHANNELS 6 Xposition Yposition Zposition Xrotation Yrotation Zrotation
												End Site
												{
													OFFSET -263.880371 0.000000 0.516020
												}
											}
										}
									}
								}
								JOINT mixamorig:RightHandPinky1
								{
									OFFSET -8.076683 -0.486710 -3.806280
									CHANNELS 6 Xposition Yposition Zposition Xrotation Yrotation Zrotation
									JOINT mixamorig:RightHandPinky2
									{
										OFFSET -3.600014 -0.000015 -0.003747
										CHANNELS 6 Xposition Yposition Zposition Xrotation Yrotation Zrotation
										JOINT mixamorig:RightHandPinky3
										{
											OFFSET -2.099983 0.000000 -0.005739
											CHANNELS 6 Xposition Yposition Zposition Xrotation Yrotation Zrotation
											JOINT mixamorig:RightHandPinky4
											{
												OFFSET -2.115768 -0.000031 -0.003680
												CHANNELS 6 Xposition Yposition Zposition Xrotation Yrotation Zrotation
												End Site
												{
													OFFSET -211.577087 0.000000 -0.350686
												}
											}
										}
									}
								}
							}
						}
					}
				}
				JOINT mixamorig:LeftShoulder
				{
					OFFSET 4.570447 11.014725 -2.160855
					CHANNELS 6 Xposition Yposition Zposition Xrotation Yrotation Zrotation
					JOINT mixamorig:LeftArm
					{
						OFFSET 10.592371 -0.524597 -2.232119
						CHANNELS 6 Xposition Yposition Zposition Xrotation Yrotation Zrotation
						JOINT mixamorig:LeftForeArm
						{
							OFFSET 27.841532 -0.000031 0.000026
							CHANNELS 6 Xposition Yposition Zposition Xrotation Yrotation Zrotation
							JOINT mixamorig:LeftHand
							{
								OFFSET 28.328846 -0.000061 0.000022
								CHANNELS 6 Xposition Yposition Zposition Xrotation Yrotation Zrotation
								JOINT mixamorig:LeftHandThumb1
								{
									OFFSET 2.466141 -1.576172 2.681732
									CHANNELS 6 Xposition Yposition Zposition Xrotation Yrotation Zrotation
									JOINT mixamorig:LeftHandThumb2
									{
										OFFSET 3.217812 -1.872070 1.916482
										CHANNELS 6 Xposition Yposition Zposition Xrotation Yrotation Zrotation
										JOINT mixamorig:LeftHandThumb3
										{
											OFFSET 2.656029 -1.528778 1.514513
											CHANNELS 6 Xposition Yposition Zposition Xrotation Yrotation Zrotation
											JOINT mixamorig:LeftHandThumb4
											{
												OFFSET 2.020889 -1.154053 1.115139
												CHANNELS 6 Xposition Yposition Zposition Xrotation Yrotation Zrotation
												End Site
												{
													OFFSET 190.885437 -115.081749 130.048782
												}
											}
										}
									}
								}
								JOINT mixamorig:LeftHandIndex1
								{
									OFFSET 9.109314 -0.518021 2.259871
									CHANNELS 6 Xposition Yposition Zposition Xrotation Yrotation Zrotation
									JOINT mixamorig:LeftHandIndex2
									{
										OFFSET 3.699989 0.000000 -0.000322
										CHANNELS 6 Xposition Yposition Zposition Xrotation Yrotation Zrotation
										JOINT mixamorig:LeftHandIndex3
										{
											OFFSET 2.850006 0.000000 0.000352
											CHANNELS 6 Xposition Yposition Zposition Xrotation Yrotation Zrotation
											JOINT mixamorig:LeftHandIndex4
											{
												OFFSET 2.774864 -0.000031 -0.000027
												CHANNELS 6 Xposition Yposition Zposition Xrotation Yrotation Zrotation
												End Site
												{
													OFFSET 277.486267 0.000000 -0.009857
												}
											}
										}
									}
								}
								JOINT mixamorig:LeftHandMiddle1
								{
									OFFSET 9.533394 0.000061 0.000044
									CHANNELS 6 Xposition Yposition Zposition Xrotation Yrotation Zrotation
									JOINT mixamorig:LeftHandMiddle2
									{
										OFFSET 3.699989 -0.000015 -0.000231
										CHANNELS 6 Xposition Yposition Zposition Xrotation Yrotation Zrotation
										JOINT mixamorig:LeftHandMiddle3
										{
											OFFSET 2.949997 -0.000015 -0.000059
											CHANNELS 6 Xposition Yposition Zposition Xrotation Yrotation Zrotation
											JOINT mixamorig:LeftHandMiddle4
											{
												OFFSET 2.952896 0.000031 0.000063
												CHANNELS 6 Xposition Yposition Zposition Xrotation Yrotation Zrotation
												End Site
												{
													OFFSET 295.289337 0.000000 0.022810
												}
											}
										}
									}
								}
								JOINT mixamorig:LeftHandRing1
								{
									OFFSET 9.104523 -0.042999 -1.865074
									CHANNELS 6 Xposition Yposition Zposition Xrotation Yrotation Zrotation
									JOINT mixamorig:LeftHandRing2
									{
										OFFSET 3.150009 -0.000031 0.000043
										CHANNELS 6 Xposition Yposition Zposition Xrotation Yrotation Zrotation
										JOINT mixamorig:LeftHandRing3
										{
											OFFSET 2.949982 -0.000015 0.000040
											CHANNELS 6 Xposition Yposition Zposition Xrotation Yrotation Zrotation
											JOINT mixamorig:LeftHandRing4
											{
												OFFSET 2.644348 0.000000 0.000057
												CHANNELS 6 Xposition Yposition Zposition Xrotation Yrotation Zrotation
												End Site
												{
													OFFSET 264.434631 0.000000 0.012105
												}
											}
										}
									}
								}
								JOINT mixamorig:LeftHandPinky1
								{
									OFFSET 8.077789 -0.486847 -3.806259
									CHANNELS 6 Xposition Yposition Zposition Xrotation Yrotation Zrotation
									JOINT mixamorig:LeftHandPinky2
									{
										OFFSET 3.599953 0.000031 0.014727
										CHANNELS 6 Xposition Yposition Zposition Xrotation Yrotation Zrotation
										JOINT mixamorig:LeftHandPinky3
										{
											OFFSET 2.100021 0.000015 0.007705
											CHANNELS 6 Xposition Yposition Zposition Xrotation Yrotation Zrotation
											JOINT mixamorig:LeftHandPinky4
											{
												OFFSET 2.125504 0.000031 0.007517
												CHANNELS 6 Xposition Yposition Zposition Xrotation Yrotation Zrotation
												End Site
												{
													OFFSET 212.550781 0.000000 0.625752
												}
											}
										}
									}
								}
							}
						}
					}
				}
			}
		}
	}
	JOINT mixamorig:RightUpLeg
	{
		OFFSET -8.207787 -6.751648 -1.599560
		CHANNELS 6 Xposition Yposition Zposition Xrotation Yrotation Zrotation
		JOINT mixamorig:RightLeg
		{
			OFFSET -0.000002 -44.370117 0.345942
			CHANNELS 6 Xposition Yposition Zposition Xrotation Yrotation Zrotation
			JOINT mixamorig:RightFoot
			{
				OFFSET 0.000003 -44.423679 -3.043532
				CHANNELS 6 Xposition Yposition Zposition Xrotation Yrotation Zrotation
				JOINT mixamorig:RightToeBase
				{
					OFFSET -0.000002 -8.728671 10.710558
					CHANNELS 6 Xposition Yposition Zposition Xrotation Yrotation Zrotation
					JOINT mixamorig:RightToe_End
					{
						OFFSET -0.000001 -0.000679 9.278119
						CHANNELS 6 Xposition Yposition Zposition Xrotation Yrotation Zrotation
						End Site
						{
							OFFSET 0.000000 -0.067690 927.812134
						}
					}
				}
			}
		}
	}
	JOINT mixamorig:LeftUpLeg
	{
		OFFSET 8.207793 -6.751686 -1.599556
		CHANNELS 6 Xposition Yposition Zposition Xrotation Yrotation Zrotation
		JOINT mixamorig:LeftLeg
		{
			OFFSET -0.000004 -44.370014 0.346954
			CHANNELS 6 Xposition Yposition Zposition Xrotation Yrotation Zrotation
			JOINT mixamorig:LeftFoot
			{
				OFFSET -0.000001 -44.423672 -3.044401
				CHANNELS 6 Xposition Yposition Zposition Xrotation Yrotation Zrotation
				JOINT mixamorig:LeftToeBase
				{
					OFFSET -0.000002 -8.728669 10.710558
					CHANNELS 6 Xposition Yposition Zposition Xrotation Yrotation Zrotation
					JOINT mixamorig:LeftToe_End
					{
						OFFSET -0.000003 -0.000679 9.278133
						CHANNELS 6 Xposition Yposition Zposition Xrotation Yrotation Zrotation
						End Site
						{
							OFFSET 0.000000 -0.068021 927.813477
						}
					}
				}
			}
		}
	}
}
MOTION
Frames: 3
Frame Time: 0.033333
0.000006 104.270477 1.554256 0.000010 0.000003 -0.000113 -0.000005 10.181587 0.131522 0.000001 -0.000003 0.000084 -0.000000 9.893967 -1.470711 0.000001 0.000000 -0.000000 -0.000000 9.220802 -1.370642 0.000000 -0.000000 -0.000000 0.000001 16.740433 -2.049030 0.000000 -0.000000 -0.000000 0.000000 9.617859 1.685014 0.000000 0.000000 0.000000 0.000002 22.037384 7.501101 0.000000 -0.000000 0.000000 -4.569968 11.014880 -2.160881 0.000008 0.000001 -0.000038 -10.592765 -0.524842 -2.231729 74.438933 71.063890 -56.954400 -27.841427 0.000001 0.000624 173.927434 64.277729 -170.347951 -28.328836 0.000005 0.000029 -0.000321 -0.000047 0.000007 -2.464923 -1.573860 2.681980 -154.265369 -209.272707 -193.900847 -3.215300 -1.872711 1.924468 22.888203 38.259551 -20.428251 -2.655001 -1.527904 1.512801 16.882901 43.170194 -22.468160 -2.018829 -1.152002 1.108063 -0.000004 0.000000 -0.000000 -9.108367 -0.517835 2.259889 8.408870 16.993997 -1.266823 -3.700082 0.000066 0.001277 10.651557 17.039375 -1.595215 -2.850099 0.000078 -0.000480 10.794352 15.237599 -1.447902 -2.772170 -0.000015 -0.000022 -0.000000 0.000001 -0.000000 -9.532571 0.000000 0.000018 7.852687 14.421190 -1.017408 -3.700079 0.000048 0.003758 8.415788 15.947855 -1.163951 -2.950057 0.000035 -0.002021 7.819166 13.528452 -0.927721 -2.946625 0.000030 -0.000155 -0.000001 0.000001 0.000000 -9.103687 -0.043051 -1.865077 2.444266 15.506145 -0.327218 -3.379343 0.000022 -0.001003 3.861140 15.864265 -0.540777 -2.889773 0.000040 0.000422 4.942756 13.534150 -0.593464 -2.638810 0.000001 0.000942 -0.000001 0.000002 0.000000 -8.076753 -0.486706 -3.806182 -13.554872 21.590593 2.605454 -3.600054 -0.000095 -0.003682 -12.647142 14.338734 1.602947 -2.100033 -0.000054 -0.005684 -10.526338 11.425057 1.057708 -2.115771 -0.000051 -0.003679 -0.000000 -0.000002 -0.000008 4.570446 11.014691 -2.160851 -0.000018 0.000010 -0.000021 10.592543 -0.524533 -2.232394 75.770751 -68.023118 55.402892 27.841820 -0.000072 -0.000105 195.574721 -66.025315 203.773175 28.328836 -0.000030 0.000023 0.000019 -0.000088 0.000001 2.465948 -1.576166 2.681855 -47.466396 127.871632 11.037665 3.217627 -1.872063 1.916535 -206.763664 49.094365 162.023371 2.655918 -1.528798 1.514613 -183.559572 48.860202 131.065538 2.020902 -1.154066 1.115143 0.000001 0.000003 0.000004 9.109132 -0.518003 2.259955 181.647979 -12.473681 194.916059 3.699865 0.000007 -0.000242 178.890782 -13.265213 170.612374 2.849894 -0.000010 0.000427 -180.924498 -11.971457 -188.811086 2.774870 -0.000050 -0.000018 -0.000001 0.000003 0.000004 9.533249 0.000036 0.000116 -179.931526 -11.275456 -179.378567 3.699784 0.000020 -0.000137 -178.712965 -13.309769 -169.020394 2.949772 0.000049 0.000023 -177.299225 -11.306774 -153.193138 2.952854 -0.000048 0.000060 -0.000000 0.000002 0.000001 9.104270 -0.042888 -1.864977 185.959755 -11.761465 233.629134 3.149653 0.000180 0.000167 -172.683411 -15.398282 -129.372799 2.949557 0.000242 0.000172 -172.487302 -13.237577 -120.991952 2.644320 0.000017 0.000056 0.000003 -0.000001 -0.000001 8.077559 -0.486619 -3.806117 201.398824 -18.614940 278.013862 3.599669 0.000362 0.014893 -158.557295 -15.962955 -73.347448 2.099752 0.000395 0.007856 -159.655549 -13.171260 -66.020807 2.125520 -0.000032 0.007522 -0.000002 0.000004 0.000002 -8.207786 -6.751667 -1.599560 -0.077001 -0.000003 0.000080 -0.000002 -44.370110 0.345938 0.153719 -0.000000 -0.000000 0.000000 -44.423679 -3.043532 -0.076700 0.000000 -0.000002 -0.000006 -8.728667 10.710559 -0.000009 -0.000000 -0.000000 -0.000001 -0.000679 9.278123 0.000000 -0.000000 -0.000000 8.207792 -6.751710 -1.599556 -0.074518 -0.000003 0.000081 -0.000002 -44.370014 0.346960 0.148822 0.000002 0.000000 -0.000001 -44.423664 -3.044403 -0.074314 0.000000 -0.000002 -0.000004 -8.728671 10.710558 0.000007 -0.000000 -0.000000 0.000000 -0.000680 9.278137 -0.000000 0.000000 -0.000001 
0.000006 104.270477 1.554256 0.000010 0.000003 -0.000113 -0.000005 10.181587 0.131522 0.000001 -0.000003 0.000084 -0.000000 9.893967 -1.470711 0.000001 0.000000 -0.000000 -0.000000 9.220802 -1.370642 0.000000 -0.000000 -0.000000 0.000001 16.740433 -2.049030 0.000000 -0.000000 -0.000000 0.000000 9.617859 1.685014 0.000000 0.000000 0.000000 0.000002 22.037384 7.501101 0.000000 -0.000000 0.000000 -4.569968 11.014880 -2.160881 0.000008 0.000001 -0.000038 -10.592768 -0.524845 -2.231733 74.314603 70.071457 -55.969606 -27.841413 -0.000003 0.000641 177.737805 63.244458 -176.326866 -28.328836 0.000020 0.000027 -0.000321 -0.000045 0.000007 -2.464555 -1.573587 2.682196 -59.870440 -188.784216 -67.837159 -3.215123 -1.872419 1.924591 133.697142 29.158976 72.729657 -2.654977 -1.527834 1.513047 158.409408 30.229382 -6.445378 -2.018830 -1.151996 1.108062 -0.000004 -0.000004 0.000000 -9.108395 -0.517611 2.260225 116.287372 21.044474 -33.360830 -3.700100 0.000254 0.001596 113.382629 21.719021 -32.511793 -2.850114 0.000315 -0.000170 111.668361 17.156436 -25.059150 -2.772175 0.000000 -0.000018 0.000002 -0.000002 0.000002 -9.532598 0.000248 0.000323 108.423365 18.209884 -25.266232 -3.700077 0.000317 0.004027 104.551843 14.087269 -18.025352 -2.950070 0.000351 -0.001768 102.765291 12.204159 -15.236882 -2.946630 0.000000 -0.000159 0.000003 -0.000001 0.000002 -9.103699 -0.042789 -1.864780 106.507818 19.587516 -25.975278 -3.379328 0.000325 -0.000773 101.722765 8.203761 -10.093006 -2.889750 0.000346 0.000672 100.684631 6.352447 -7.714014 -2.638806 -0.000017 0.000932 0.000001 0.000001 -0.000001 -8.076777 -0.486426 -3.805928 103.783652 25.481149 -31.961696 -3.600035 0.000286 -0.003449 103.396695 8.524943 -10.332021 -2.100014 0.000334 -0.005447 101.373907 4.954391 -5.783100 -2.115775 -0.000051 -0.003694 -0.000002 0.000001 -0.000007 4.570446 11.014691 -2.160851 -0.000018 0.000010 -0.000021 10.592532 -0.524532 -2.232401 71.785650 -64.565136 49.138812 27.841812 -0.000056 -0.000113 195.128054 -66.258251 203.002347 28.328833 -0.000015 0.000023 0.000022 -0.000089 -0.000000 2.465851 -1.576087 2.681845 -57.539754 161.072253 34.337383 3.217600 -1.872058 1.916569 -206.712643 42.337272 159.329544 2.655977 -1.528830 1.514615 -166.314382 42.936543 105.347854 2.020907 -1.154059 1.115141 0.000002 0.000005 0.000002 9.109237 -0.518064 2.259940 178.091322 -15.674931 166.119298 3.699933 -0.000024 -0.000257 176.077195 -16.721073 153.876908 2.849892 -0.000017 0.000432 -181.264300 -14.566246 -189.877633 2.774891 -0.000046 -0.000028 0.000001 -0.000002 -0.000002 9.533232 0.000025 0.000117 -179.376381 -14.047286 -174.997151 3.699801 -0.000003 -0.000147 -179.141382 -15.653286 -173.775476 2.949786 0.000025 0.000028 -177.423589 -12.646319 -157.039983 2.952864 -0.000033 0.000060 -0.000002 -0.000003 -0.000005 9.104323 -0.043001 -1.864999 183.643733 -15.752303 205.906202 3.149696 0.000037 0.000156 -178.550024 -16.456984 -169.988560 2.949592 0.000030 0.000153 -178.636481 -13.168214 -168.216057 2.644316 0.000017 0.000057 -0.000000 -0.000002 0.000001 8.077561 -0.486616 -3.806093 209.819709 -22.614773 286.013270 3.599681 0.000371 0.014884 -158.057927 -15.007418 -68.798658 2.099787 0.000415 0.007861 -158.238872 -10.629581 -52.469035 2.125510 -0.000016 0.007528 -0.000003 0.000002 0.000000 -8.207786 -6.751667 -1.599560 -0.077001 -0.000003 0.000080 -0.000002 -44.370110 0.345938 0.153719 -0.000000 -0.000000 0.000000 -44.423679 -3.043532 -0.076700 0.000000 -0.000002 -0.000006 -8.728667 10.710559 -0.000009 -0.000000 -0.000000 -0.000001 -0.000679 9.278123 0.000000 -0.000000 -0.000000 8.207792 -6.751710 -1.599556 -0.074518 -0.000003 0.000081 -0.000002 -44.370014 0.346960 0.148822 0.000002 0.000000 -0.000001 -44.423664 -3.044403 -0.074314 0.000000 -0.000002 -0.000004 -8.728671 10.710558 0.000007 -0.000000 -0.000000 0.000000 -0.000680 9.278137 -0.000000 0.000000 -0.000001 
0.000006 104.270477 1.554256 0.000010 0.000003 -0.000113 -0.000005 10.181587 0.131522 0.000001 -0.000003 0.000084 -0.000000 9.893967 -1.470711 0.000001 0.000000 -0.000000 -0.000000 9.220802 -1.370642 0.000000 -0.000000 -0.000000 0.000001 16.740433 -2.049030 0.000000 -0.000000 -0.000000 0.000000 9.617859 1.685014 0.000000 0.000000 0.000000 0.000002 22.037384 7.501101 0.000000 -0.000000 0.000000 -4.569968 11.014880 -2.160881 0.000008 0.000001 -0.000038 -10.592765 -0.524848 -2.231735 72.556444 70.312966 -54.672256 -27.841413 -0.000013 0.000623 180.883586 64.851137 -181.390932 -28.328821 0.000006 0.000030 -0.000321 -0.000044 0.000004 -2.464478 -1.573630 2.682217 -59.961636 -178.578970 -52.319792 -3.215110 -1.872410 1.924594 134.036602 29.425302 71.953345 -2.654960 -1.527851 1.513057 159.755010 28.034032 -18.377433 -2.018834 -1.152020 1.108065 -0.000002 -0.000003 0.000002 -9.108392 -0.517596 2.260211 113.876718 19.680099 -29.913729 -3.700087 0.000263 0.001573 109.300881 20.366050 -28.384854 -2.850095 0.000333 -0.000202 105.925483 16.328897 -21.529277 -2.772163 -0.000011 -0.000027 0.000004 -0.000003 -0.000000 -9.532610 0.000250 0.000308 106.632565 17.831607 -23.977376 -3.700069 0.000343 0.004001 101.997865 13.482269 -16.490208 -2.950064 0.000350 -0.001782 99.355258 11.745866 -13.812196 -2.946628 0.000013 -0.000153 0.000001 0.000003 -0.000002 -9.103708 -0.042772 -1.864802 104.457601 19.201740 -24.570554 -3.379342 0.000328 -0.000796 99.259055 8.882279 -10.459729 -2.889756 0.000358 0.000650 97.996091 7.080186 -8.193389 -2.638800 -0.000016 0.000951 -0.000002 0.000001 0.000002 -8.076790 -0.486420 -3.805946 100.041665 25.484988 -29.998860 -3.600049 0.000286 -0.003455 99.825721 8.880452 -10.118259 -2.100010 0.000299 -0.005444 98.133911 5.511782 -6.101507 -2.115765 -0.000033 -0.003685 0.000003 -0.000001 -0.000004 4.570446 11.014691 -2.160851 -0.000018 0.000010 -0.000021 10.592529 -0.524539 -2.232394 67.847172 -65.063603 46.438709 27.841824 -0.000056 -0.000107 194.995494 -67.361443 202.343138 28.328840 -0.000029 0.000026 0.000022 -0.000089 -0.000000 2.465867 -1.576090 2.681878 -55.331929 159.759477 28.618096 3.217641 -1.872062 1.916574 -198.729859 40.317534 145.633253 2.655999 -1.528796 1.514615 -164.409880 35.844030 97.616825 2.020890 -1.154081 1.115147 -0.000004 0.000003 0.000006 9.109135 -0.518014 2.259970 183.092100 -20.853247 196.642867 3.699855 -0.000040 -0.000242 179.163266 -21.070498 175.581364 2.849878 -0.000026 0.000439 -180.530137 -17.410709 -183.468580 2.774879 -0.000031 -0.000027 -0.000001 0.000000 0.000000 9.533215 0.000056 0.000138 -177.822951 -19.897115 -167.671076 3.699808 -0.000033 -0.000134 -179.133841 -19.246927 -174.908072 2.949862 -0.000036 0.000028 -179.724120 -15.080733 -177.897878 2.952864 -0.000011 0.000060 0.000000 0.000005 0.000001 9.104301 -0.042942 -1.864958 188.856274 -23.752314 220.435244 3.149645 0.000136 0.000179 -173.044537 -19.679261 -141.374930 2.949563 0.000117 0.000155 -176.208622 -14.001290 -149.821661 2.644312 0.000030 0.000057 -0.000004 -0.000003 0.000003 8.077572 -0.486657 -3.806066 217.717539 -29.878806 283.959896 3.599715 0.000345 0.014916 -152.684999 -18.681662 -68.494510 2.099780 0.000388 0.007882 -156.399120 -12.073516 -54.393164 2.125509 -0.000017 0.007501 0.000001 0.000002 0.000001 -8.207786 -6.751667 -1.599560 -0.077001 -0.000003 0.000080 -0.000002 -44.370110 0.345938 0.153719 -0.000000 -0.000000 0.000000 -44.423679 -3.043532 -0.076700 0.000000 -0.000002 -0.000006 -8.728667 10.710559 -0.000009 -0.000000 -0.000000 -0.000001 -0.000679 9.278123 0.000000 -0.000000 -0.000000 8.207792 -6.751710 -1.599556 -0.074518 -0.000003 0.000081 -0.000002 -44.370014 0.346960 0.148822 0.000002 0.000000 -0.000001 -44.423664 -3.044403 -0.074314 0.000000 -0.000002 -0.000004 -8.728671 10.710558 0.000007 -0.000000 -0.000000 0.000000 -0.000680 9.278137 -0.000000 0.000000 -0.000001 
